{
  "accessors": [
    {
      "bufferView": 2,
      "componentType": 5126,
      "count": 65532,
      "max": [
        0.74356597661972046,
        0.84300398826599121,
        3.443917989730835
      ],
      "min": [
        -0.5112910270690918,
        -0.71434897184371948,
        0.25269100069999695
      ],
      "type": "VEC3"
    },
    {
      "bufferView": 2,
      "byteOffset": 786384,
      "componentType": 5126,
      "count": 65532,
      "max": [
        0.99996292591094971,
        0.99996829032897949,
        0.99993729591369629
      ],
      "min": [
        -0.99997830390930176,
        -0.99997448921203613,
        -0.99932754039764404
      ],
      "type": "VEC3"
    },
    {
      "bufferView": 3,
      "componentType": 5126,
      "count": 65532,
      "max": [
        0.99992859363555908,
        0.99998891353607178,
        0.99993807077407837,
        1
      ],
      "min": [
        -0.99996280670166016,
        -0.99998903274536133,
        -0.99978464841842651,
        -1
      ],
      "type": "VEC4"
    },
    {
      "bufferView": 1,
      "componentType": 5126,
      "count": 65532,
      "max": [
        0.9998670220375061,
        1
      ],
      "min": [
        0,
        0
      ],
      "type": "VEC2"
    },
    {
      "bufferView": 0,
      "componentType": 5125,
      "count": 337332,
      "max": [
        65531
      ],
      "min": [
        0
      ],
      "type": "SCALAR"
    },
    {
      "bufferView": 2,
      "byteOffset": 1572768,
      "componentType": 5126,
      "count": 42025,
      "max": [
        0.74340999126434326,
        0.83363902568817139,
        3.5733330249786377
      ],
      "min": [
        -0.52002298831939697,
        -0.67632901668548584,
        0.099063999950885773
      ],
      "type": "VEC3"
    },
    {
      "bufferView": 2,
      "byteOffset": 2077068,
      "componentType": 5126,
      "count": 42025,
      "max": [
        0.99992525577545166,
        0.99996829032897949,
        0.99970060586929321
      ],
      "min": [
        -0.99997830390930176,
        -0.99994218349456787,
        -0.99998736381530762
      ],
      "type": "VEC3"
    },
    {
      "bufferView": 3,
      "byteOffset": 1048512,
      "componentType": 5126,
      "count": 42025,
      "max": [
        0.99999070167541504,
        0.99981892108917236,
        0.99993693828582764,
        1
      ],
      "min": [
        -0.99969977140426636,
        -0.99998748302459717,
        -0.99996787309646606,
        -1
      ],
      "type": "VEC4"
    },
    {
      "bufferView": 1,
      "byteOffset": 524256,
      "componentType": 5126,
      "count": 42025,
      "max": [
        1,
        1
      ],
      "min": [
        0,
        2.5999999706982635e-05
      ],
      "type": "VEC2"
    },
    {
      "bufferView": 0,
      "byteOffset": 1349328,
      "componentType": 5125,
      "count": 201228,
      "max": [
        42024
      ],
      "min": [
        0
      ],
      "type": "SCALAR"
    }
  ],
  "asset": {
    "extras": {
      "author": "thesidekick (https://sketchfab.com/thesidekick)",
      "license": "CC-BY-4.0 (http://creativecommons.org/licenses/by/4.0/)",
      "source": "https://sketchfab.com/3d-models/pineapple-3debe241ac7e401aa36ae944daa1708e",
      "title": "Pineapple"
    },
    "generator": "Sketchfab-5.40.0",
    "version": "2.0"
  },
  "bufferViews": [
    {
      "buffer": 0,
      "byteLength": 2154240,
      "byteOffset": 0,
      "name": "floatBufferViews",
      "target": 34963
    },
    {
      "buffer": 0,
      "byteLength": 860456,
      "byteOffset": 2154240,
      "byteStride": 8,
      "name": "floatBufferViews",
      "target": 34962
    },
    {
      "buffer": 0,
      "byteLength": 2581368,
      "byteOffset": 3014696,
      "byteStride": 12,
      "name": "floatBufferViews",
      "target": 34962
    },
    {
      "buffer": 0,
      "byteLength": 1720912,
      "byteOffset": 5596064,
      "byteStride": 16,
      "name": "floatBufferViews",
      "target": 34962
    }
  ],
  "buffers": [
    {
      "byteLength": 7316976,
      "uri": "scene.bin"
    }
  ],
  "images": [
    {
      "uri": "textures/Ananas_retopo_baseColor.jpeg"
    },
    {
      "uri": "textures/Ananas_retopo_normal.png"
    },
    {
      "uri": "textures/Ananas_retopo_emissive.jpeg"
    }
  ],
  "materials": [
    {
      "doubleSided": true,
      "emissiveFactor": [
        0.80492424240000005,
        0.80492424240000005,
        0.80492424240000005
      ],
      "emissiveTexture": {
        "index": 2,
        "texCoord": 0
      },
      "name": "Ananas_retopo",
      "normalTexture": {
        "index": 1,
        "scale": 0.59564393940000004,
        "texCoord": 0
      },
      "pbrMetallicRoughness": {
        "baseColorFactor": [
          0.60776515149999999,
          0.60776515149999999,
          0.60776515149999999,
          1
        ],
        "baseColorTexture": {
          "index": 0,
          "texCoord": 0
        },
        "metallicFactor": 0,
        "roughnessFactor": 1
      }
    }
  ],
  "meshes": [
    {
      "primitives": [
        {
          "attributes": {
            "NORMAL": 1,
            "POSITION": 0,
            "TANGENT": 2,
            "TEXCOORD_0": 3
          },
          "indices": 4,
          "material": 0,
          "mode": 4
        }
      ]
    },
    {
      "primitives": [
        {
          "attributes": {
            "NORMAL": 6,
            "POSITION": 5,
            "TANGENT": 7,
            "TEXCOORD_0": 8
          },
          "indices": 9,
          "material": 0,
          "mode": 4
        }
      ]
    }
  ],
  "nodes": [
    {
      "children": [
        1
      ],
      "name": "RootNode (gltf orientation matrix)",
      "rotation": [
        -0.70710678118654746,
        -0,
        -0,
        0.70710678118654757
      ]
    },
    {
      "children": [
        2
      ],
      "name": "RootNode (model correction matrix)"
    },
    {
      "children": [
        3,
        4
      ],
      "name": "Ananas_retopo.obj.cleaner.materialmerger.gles"
    },
    {
      "mesh": 0,
      "name": ""
    },
    {
      "mesh": 1,
      "name": ""
    }
  ],
  "samplers": [
    {
      "magFilter": 9729,
      "minFilter": 9987,
      "wrapS": 10497,
      "wrapT": 10497
    }
  ],
  "scene": 0,
  "scenes": [
    {
      "name": "OSG_Scene",
      "nodes": [
        0
      ]
    }
  ],
  "textures": [
    {
      "sampler": 0,
      "source": 0
    },
    {
      "sampler": 0,
      "source": 1
    },
    {
      "sampler": 0,
      "source": 2
    }
  ]
}

